<svg width="46" height="48" viewBox="0 0 46 48" fill="none" xmlns="http://www.w3.org/2000/svg">
<path d="M29.2891 40.1719C29.2891 40.6681 28.8869 41.0703 28.3906 41.0703C27.8944 41.0703 27.4922 40.6681 27.4922 40.1719C27.4922 39.6756 27.8944 39.2734 28.3906 39.2734C28.8869 39.2734 29.2891 39.6756 29.2891 40.1719Z" fill="#19191D" stroke="#FFF7F6"/>
<path d="M21.2031 17.7109C21.2031 18.2072 20.8009 18.6094 20.3047 18.6094C19.8084 18.6094 19.4062 18.2072 19.4062 17.7109C19.4062 17.2147 19.8084 16.8125 20.3047 16.8125C20.8009 16.8125 21.2031 17.2147 21.2031 17.7109Z" fill="#19191D" stroke="#FFF7F6"/>
<path d="M13.1172 34.7812C13.1172 35.2775 12.715 35.6797 12.2188 35.6797C11.7225 35.6797 11.3203 35.2775 11.3203 34.7812C11.3203 34.285 11.7225 33.8828 12.2188 33.8828C12.715 33.8828 13.1172 34.285 13.1172 34.7812Z" fill="#19191D" stroke="#FFF7F6"/>
<path d="M11.3203 1.89844V6.92969H6.82812C6.33188 6.92969 5.92969 7.33188 5.92969 7.82812V46.1016C5.92969 46.5978 6.33188 47 6.82812 47H16.2617C16.758 47 17.1602 46.5978 17.1602 46.1016C17.1602 45.6053 16.758 45.2031 16.2617 45.2031H7.72656V8.72656H27.4922V13.2188C27.4922 13.715 27.8944 14.1172 28.3906 14.1172H32.8828V45.2031H24.3477C23.8514 45.2031 23.4492 45.6053 23.4492 46.1016C23.4492 46.5978 23.8514 47 24.3477 47H33.7812C34.2775 47 34.6797 46.5978 34.6797 46.1016V41.0703H39.1719C39.6681 41.0703 40.0703 40.6681 40.0703 40.1719V1.89844C40.0703 1.40219 39.6681 1 39.1719 1H12.2188C11.7225 1 11.3203 1.40219 11.3203 1.89844ZM29.2891 12.3203V9.99736L31.612 12.3203H29.2891ZM38.2734 2.79688V39.2734H34.6797V13.2188C34.6797 12.9913 34.5905 12.7583 34.4179 12.5846C34.4172 12.5842 34.4168 12.5839 34.4165 12.5835L29.0258 7.1929C29.0255 7.19255 29.0251 7.1922 29.0248 7.19185C28.8658 7.03357 28.6377 6.92969 28.3906 6.92969H13.1172V2.79688H38.2734Z" fill="#19191D" stroke="#FFF7F6"/>
<path d="M12.2188 28.4921C11.7225 28.4921 11.3203 28.8943 11.3203 29.3905C11.3203 29.8868 11.7225 30.289 12.2188 30.289H28.3906C28.8869 30.289 29.2891 29.8868 29.2891 29.3905C29.2891 28.8943 28.8869 28.4921 28.3906 28.4921H26.5938V22.203H28.3906C28.8869 22.203 29.2891 21.8008 29.2891 21.3046V18.6093C29.2891 18.3089 29.1389 18.0285 28.889 17.8618L20.803 12.4711C20.5012 12.27 20.1082 12.27 19.8063 12.4711L11.7204 17.8618C11.4705 18.0285 11.3203 18.3089 11.3203 18.6093V21.3046C11.3203 21.8008 11.7225 22.203 12.2188 22.203H14.0156V28.4921H12.2188ZM24.7969 28.4921H21.2031V22.203H24.7969V28.4921ZM13.1172 19.0901L20.3047 14.2985L27.4922 19.0901V20.4062H13.1172V19.0901ZM15.8125 22.203H19.4062V28.4921H15.8125V22.203Z" fill="#19191D" stroke="#FFF7F6"/>
<path d="M28.3906 33.8828H15.8125C15.3163 33.8828 14.9141 34.285 14.9141 34.7812C14.9141 35.2775 15.3163 35.6797 15.8125 35.6797H28.3906C28.8869 35.6797 29.2891 35.2775 29.2891 34.7812C29.2891 34.285 28.8869 33.8828 28.3906 33.8828Z" fill="#19191D" stroke="#FFF7F6"/>
<path d="M25.6953 40.1719C25.6953 39.6756 25.2931 39.2734 24.7969 39.2734H12.2188C11.7225 39.2734 11.3203 39.6756 11.3203 40.1719C11.3203 40.6681 11.7225 41.0703 12.2188 41.0703H24.7969C25.2931 41.0703 25.6953 40.6681 25.6953 40.1719Z" fill="#19191D" stroke="#FFF7F6"/>
<path d="M21.2031 46.1016C21.2031 46.5978 20.8009 47 20.3047 47C19.8084 47 19.4062 46.5978 19.4062 46.1016C19.4062 45.6053 19.8084 45.2031 20.3047 45.2031C20.8009 45.2031 21.2031 45.6053 21.2031 46.1016Z" fill="#19191D" stroke="#FFF7F6"/>
</svg>
