<svg width="24" height="24" viewBox="0 0 24 24" fill="none" xmlns="http://www.w3.org/2000/svg">
<circle cx="12" cy="12" r="12" fill="#19191D"/>
<path d="M16.7828 15.4667C17.1514 15.8352 17.1514 16.4085 16.7828 16.777C16.5986 16.9613 16.3734 17.0431 16.1277 17.0431C15.882 17.0431 15.6568 16.9613 15.4726 16.777L11.7259 13.0304L7.97926 16.777C7.795 16.9613 7.5698 17.0431 7.32412 17.0431C7.07844 17.0431 6.85324 16.9613 6.66898 16.777C6.30046 16.4085 6.30046 15.8352 6.66898 15.4667L10.4156 11.72L6.66898 7.97341C6.30046 7.60489 6.30046 7.03163 6.66898 6.66311C7.0375 6.29459 7.61074 6.29459 7.97926 6.66311L11.7259 10.4097L15.4726 6.66311C15.8411 6.29459 16.4143 6.29459 16.7828 6.66311C17.1514 7.03163 17.1514 7.60489 16.7828 7.97341L13.0362 11.72L16.7828 15.4667Z" fill="white"/>
</svg>
