<svg width="48" height="48" viewBox="0 0 48 48" fill="none" xmlns="http://www.w3.org/2000/svg">
<path d="M29.2891 40.1719C29.2891 40.6681 28.8869 41.0703 28.3906 41.0703C27.8944 41.0703 27.4922 40.6681 27.4922 40.1719C27.4922 39.6756 27.8944 39.2734 28.3906 39.2734C28.8869 39.2734 29.2891 39.6756 29.2891 40.1719Z" fill="#19191D" stroke="#FFE8E5"/>
<path d="M21.2031 17.7109C21.2031 18.2072 20.8009 18.6094 20.3047 18.6094C19.8084 18.6094 19.4062 18.2072 19.4062 17.7109C19.4062 17.2147 19.8084 16.8125 20.3047 16.8125C20.8009 16.8125 21.2031 17.2147 21.2031 17.7109Z" fill="#19191D" stroke="#FFE8E5"/>
<path d="M13.1172 34.7812C13.1172 35.2775 12.715 35.6797 12.2188 35.6797C11.7225 35.6797 11.3203 35.2775 11.3203 34.7812C11.3203 34.285 11.7225 33.8828 12.2188 33.8828C12.715 33.8828 13.1172 34.285 13.1172 34.7812Z" fill="#19191D" stroke="#FFE8E5"/>
<path d="M11.3203 1.89844V6.92969H6.82812C6.33188 6.92969 5.92969 7.33188 5.92969 7.82812V46.1016C5.92969 46.5978 6.33188 47 6.82812 47H16.2617C16.758 47 17.1602 46.5978 17.1602 46.1016C17.1602 45.6053 16.758 45.2031 16.2617 45.2031H7.72656V8.72656H27.4922V13.2188C27.4922 13.715 27.8944 14.1172 28.3906 14.1172H32.8828V45.2031H24.3477C23.8514 45.2031 23.4492 45.6053 23.4492 46.1016C23.4492 46.5978 23.8514 47 24.3477 47H33.7812C34.2775 47 34.6797 46.5978 34.6797 46.1016V41.0703H39.1719C39.6681 41.0703 40.0703 40.6681 40.0703 40.1719V1.89844C40.0703 1.40219 39.6681 1 39.1719 1H12.2188C11.7225 1 11.3203 1.40219 11.3203 1.89844ZM29.2891 12.3203V9.99736L31.612 12.3203H29.2891ZM38.2734 2.79688V39.2734H34.6797V13.2188C34.6797 12.9913 34.5905 12.7583 34.4179 12.5846C34.4172 12.5842 34.4168 12.5839 34.4165 12.5835L29.0258 7.1929C29.0255 7.19255 29.0251 7.1922 29.0248 7.19185C28.8658 7.03357 28.6377 6.92969 28.3906 6.92969H13.1172V2.79688H38.2734Z" fill="#19191D" stroke="#FFE8E5"/>
<path d="M28.3906 33.8828H15.8125C15.3163 33.8828 14.9141 34.285 14.9141 34.7812C14.9141 35.2775 15.3163 35.6797 15.8125 35.6797H28.3906C28.8869 35.6797 29.2891 35.2775 29.2891 34.7812C29.2891 34.285 28.8869 33.8828 28.3906 33.8828Z" fill="#19191D" stroke="#FFE8E5"/>
<path d="M25.6953 40.1719C25.6953 39.6756 25.2931 39.2734 24.7969 39.2734H12.2188C11.7225 39.2734 11.3203 39.6756 11.3203 40.1719C11.3203 40.6681 11.7225 41.0703 12.2188 41.0703H24.7969C25.2931 41.0703 25.6953 40.6681 25.6953 40.1719Z" fill="#19191D" stroke="#FFE8E5"/>
<path d="M25.6953 20.1719C25.6953 19.6756 25.2931 19.2734 24.7969 19.2734H12.2188C11.7225 19.2734 11.3203 19.6756 11.3203 20.1719C11.3203 20.6681 11.7225 21.0703 12.2188 21.0703H24.7969C25.2931 21.0703 25.6953 20.6681 25.6953 20.1719Z" fill="#19191D" stroke="#FFE8E5"/>
<path d="M27.6953 26.1719C27.6953 25.6756 27.2931 25.2734 26.7969 25.2734H14.2188C13.7225 25.2734 13.3203 25.6756 13.3203 26.1719C13.3203 26.6681 13.7225 27.0703 14.2188 27.0703H26.7969C27.2931 27.0703 27.6953 26.6681 27.6953 26.1719Z" fill="#19191D" stroke="#FFE8E5"/>
<path d="M21.2031 46.1016C21.2031 46.5978 20.8009 47 20.3047 47C19.8084 47 19.4062 46.5978 19.4062 46.1016C19.4062 45.6053 19.8084 45.2031 20.3047 45.2031C20.8009 45.2031 21.2031 45.6053 21.2031 46.1016Z" fill="#19191D" stroke="#FFE8E5"/>
<path d="M37.5 27C31.7101 27 27 31.7101 27 37.5C27 43.2899 31.7101 48 37.5 48C43.2899 48 48 43.2899 48 37.5C48 31.7101 43.2899 27 37.5 27Z" fill="#FF1301"/>
<path d="M41.3669 40.1295C41.7089 40.4717 41.7089 41.0246 41.3669 41.3669C41.1962 41.5375 40.9722 41.6232 40.7481 41.6232C40.5241 41.6232 40.3001 41.5375 40.1295 41.3669L37.5002 38.7374L34.8709 41.3669C34.7002 41.5375 34.4762 41.6232 34.2523 41.6232C34.0281 41.6232 33.8041 41.5375 33.6335 41.3669C33.2914 41.0246 33.2914 40.4717 33.6335 40.1295L36.263 37.5002L33.6335 34.8709C33.2914 34.5286 33.2914 33.9757 33.6335 33.6335C33.9757 33.2914 34.5286 33.2914 34.8709 33.6335L37.5002 36.263L40.1295 33.6335C40.4717 33.2914 41.0246 33.2914 41.3669 33.6335C41.7089 33.9757 41.7089 34.5286 41.3669 34.8709L38.7374 37.5002L41.3669 40.1295Z" fill="#FAFAFA"/>
</svg>
