<svg width="46" height="46" viewBox="0 0 46 46" fill="none" xmlns="http://www.w3.org/2000/svg">
<g clip-path="url(#clip0_4348_15250)">
<path d="M41.2083 40.25H4.79167C2.1505 40.25 0 38.0995 0 35.4583V10.5417C0 7.9005 2.1505 5.75 4.79167 5.75H41.2083C43.8495 5.75 46 7.9005 46 10.5417V35.4583C46 38.0995 43.8495 40.25 41.2083 40.25ZM4.79167 7.66667C3.20658 7.66667 1.91667 8.95658 1.91667 10.5417V35.4583C1.91667 37.0434 3.20658 38.3333 4.79167 38.3333H41.2083C42.7934 38.3333 44.0833 37.0434 44.0833 35.4583V10.5417C44.0833 8.95658 42.7934 7.66667 41.2083 7.66667H4.79167Z" fill="#19191D" stroke="#FFF7F6"/>
<path d="M14.3747 23.0003C11.7335 23.0003 9.58301 20.8498 9.58301 18.2087C9.58301 15.5675 11.7335 13.417 14.3747 13.417C17.0158 13.417 19.1663 15.5675 19.1663 18.2087C19.1663 20.8498 17.0158 23.0003 14.3747 23.0003ZM14.3747 15.3337C12.7896 15.3337 11.4997 16.6236 11.4997 18.2087C11.4997 19.7937 12.7896 21.0837 14.3747 21.0837C15.9598 21.0837 17.2497 19.7937 17.2497 18.2087C17.2497 16.6236 15.9598 15.3337 14.3747 15.3337Z" fill="#19191D" stroke="#FFF7F6"/>
<path d="M22.0417 32.5837C21.5127 32.5837 21.0833 32.1543 21.0833 31.6253V29.7087C21.0833 28.1236 19.7934 26.8337 18.2083 26.8337H10.5417C8.95658 26.8337 7.66667 28.1236 7.66667 29.7087V31.6253C7.66667 32.1543 7.23733 32.5837 6.70833 32.5837C6.17933 32.5837 5.75 32.1543 5.75 31.6253V29.7087C5.75 27.0675 7.9005 24.917 10.5417 24.917H18.2083C20.8495 24.917 23 27.0675 23 29.7087V31.6253C23 32.1543 22.5707 32.5837 22.0417 32.5837Z" fill="#19191D" stroke="#FFF7F6"/>
<path d="M39.2913 24.9167H27.7913C27.2623 24.9167 26.833 24.4873 26.833 23.9583C26.833 23.4293 27.2623 23 27.7913 23H39.2913C39.8203 23 40.2497 23.4293 40.2497 23.9583C40.2497 24.4873 39.8203 24.9167 39.2913 24.9167Z" fill="#19191D" stroke="#FFF7F6"/>
<path d="M39.2913 17.2497H27.7913C27.2623 17.2497 26.833 16.8203 26.833 16.2913C26.833 15.7623 27.2623 15.333 27.7913 15.333H39.2913C39.8203 15.333 40.2497 15.7623 40.2497 16.2913C40.2497 16.8203 39.8203 17.2497 39.2913 17.2497Z" fill="#19191D" stroke="#FFF7F6"/>
<path d="M39.2913 32.5837H27.7913C27.2623 32.5837 26.833 32.1543 26.833 31.6253C26.833 31.0963 27.2623 30.667 27.7913 30.667H39.2913C39.8203 30.667 40.2497 31.0963 40.2497 31.6253C40.2497 32.1543 39.8203 32.5837 39.2913 32.5837Z" fill="#19191D" stroke="#FFF7F6"/>
</g>
<defs>
<clipPath id="clip0_4348_15250">
<rect width="46" height="46" fill="white"/>
</clipPath>
</defs>
</svg>
