<svg width="12" height="14" viewBox="0 0 12 14" fill="none" xmlns="http://www.w3.org/2000/svg">
<path d="M10.3004 1.2H10.7004C10.9214 1.2 11.1004 1.021 11.1004 0.8V0.4C11.1004 0.179 10.9214 0 10.7004 0H1.30039C1.07939 0 0.900391 0.179 0.900391 0.4V0.8C0.900391 1.021 1.07939 1.2 1.30039 1.2H1.70039C1.70039 4.76 4.53819 4.89879 4.70039 7C4.53819 9.10118 1.70039 9.24 1.70039 12.8H1.30039C1.07939 12.8 0.900391 12.979 0.900391 13.2V13.6C0.900391 13.821 1.07939 14 1.30039 14H10.7004C10.9214 14 11.1004 13.821 11.1004 13.6V13.2C11.1004 12.979 10.9214 12.8 10.7004 12.8H10.3004C10.3004 9.24 7.46263 9.10118 7.30039 7C7.4626 4.89879 10.3004 4.76 10.3004 1.2ZM9.0878 12.468C9.18001 12.6 9.08419 12.7814 8.92298 12.7814H6.00039H3.04657C2.89177 12.7814 2.79398 12.6118 2.87377 12.4792C3.65598 11.1804 4.60857 10.2056 5.86619 9.25221C5.94319 9.19379 6.05377 9.19979 6.12539 9.26479C7.40239 10.4262 8.30939 11.3532 9.0878 12.468ZM5.9846 6.02359L3.85177 3.898C3.85177 3.898 4.92377 4.334 5.79577 4.334C6.66777 4.334 7.4128 3.71621 8.06698 3.71621C8.72119 3.71621 5.9846 6.02359 5.9846 6.02359Z" fill="#FF862E"/>
</svg>
