<svg width="28" height="28" viewBox="0 0 28 28" fill="none" xmlns="http://www.w3.org/2000/svg">
<g filter="url(#filter0_d_1012_7907)">
<path d="M15.51 0.508331C15.4112 0.428018 15.281 0.397315 15.1567 0.42501L4.32338 2.92501C4.13271 2.96884 3.99818 3.13939 4.00002 3.33501V17.5017C4.0001 17.7073 4.15014 17.8821 4.35334 17.9134L15.1867 19.5801C15.4141 19.615 15.6269 19.459 15.6618 19.2316C15.665 19.2107 15.6667 19.1895 15.6667 19.1684V0.83501C15.667 0.70794 15.6094 0.587667 15.51 0.508331Z" fill="#19191D"/>
<path d="M23.5835 17.9183H15.2502C15.0201 17.9183 14.8335 17.7318 14.8335 17.5017C14.8335 17.2715 15.0201 17.085 15.2502 17.085H23.1669V2.91834H15.2502C15.0201 2.91834 14.8335 2.73178 14.8335 2.50166C14.8335 2.27155 15.0201 2.08502 15.2502 2.08502H23.5835C23.8136 2.08502 24.0002 2.27158 24.0002 2.5017V17.5017C24.0002 17.7318 23.8137 17.9183 23.5835 17.9183Z" fill="#19191D"/>
<path d="M11.0832 13.7517C10.8975 13.7516 10.7344 13.6285 10.6832 13.4501L9.4165 9.01839L8.14982 13.4501C8.05833 13.6712 7.80489 13.7763 7.58372 13.6848C7.47739 13.6408 7.39294 13.5564 7.34896 13.4501L5.68232 7.61675C5.61255 7.39745 5.7338 7.16315 5.9531 7.09339C6.17239 7.02362 6.40669 7.14487 6.47646 7.36417C6.47892 7.3719 6.48114 7.37972 6.48318 7.38757L7.74982 11.8184L9.0165 7.38675C9.10798 7.16561 9.36142 7.0605 9.58259 7.15198C9.68892 7.19597 9.77337 7.28042 9.81736 7.38675L11.0832 11.8184L12.3499 7.38761C12.4098 7.16831 12.6362 7.03913 12.8555 7.09909C12.8586 7.09995 12.8617 7.10085 12.8649 7.10175C13.0859 7.16511 13.2139 7.39561 13.1507 7.61675L11.484 13.4501C11.4327 13.6288 11.2691 13.7519 11.0832 13.7517Z" fill="#FAFAFA"/>
<path d="M21.9169 5.41838H15.2502C15.0201 5.41838 14.8335 5.23182 14.8335 5.0017C14.8335 4.77158 15.0201 4.58502 15.2502 4.58502H21.9169C22.147 4.58502 22.3335 4.77158 22.3335 5.0017C22.3335 5.23186 22.147 5.41838 21.9169 5.41838Z" fill="#19191D"/>
<path d="M21.9169 7.91838H15.2502C15.0201 7.91838 14.8335 7.73182 14.8335 7.5017C14.8335 7.27158 15.0201 7.08502 15.2502 7.08502H21.9169C22.147 7.08502 22.3335 7.27158 22.3335 7.5017C22.3335 7.73182 22.147 7.91838 21.9169 7.91838Z" fill="#19191D"/>
<path d="M21.9169 10.4184H15.2502C15.0201 10.4184 14.8335 10.2318 14.8335 10.0017C14.8335 9.77158 15.0201 9.58502 15.2502 9.58502H21.9169C22.147 9.58502 22.3335 9.77158 22.3335 10.0017C22.3335 10.2319 22.147 10.4184 21.9169 10.4184Z" fill="#19191D"/>
<path d="M21.9169 12.9184H15.2502C15.0201 12.9184 14.8335 12.7318 14.8335 12.5017C14.8335 12.2716 15.0201 12.085 15.2502 12.085H21.9169C22.147 12.085 22.3335 12.2716 22.3335 12.5017C22.3335 12.7319 22.147 12.9184 21.9169 12.9184Z" fill="#19191D"/>
<path d="M21.9169 15.4184H15.2502C15.0201 15.4184 14.8335 15.2318 14.8335 15.0017C14.8335 14.7716 15.0201 14.585 15.2502 14.585H21.9169C22.147 14.585 22.3335 14.7716 22.3335 15.0017C22.3335 15.2319 22.147 15.4184 21.9169 15.4184Z" fill="#19191D"/>
</g>
<defs>
<filter id="filter0_d_1012_7907" x="0" y="0" width="28" height="28" filterUnits="userSpaceOnUse" color-interpolation-filters="sRGB">
<feFlood flood-opacity="0" result="BackgroundImageFix"/>
<feColorMatrix in="SourceAlpha" type="matrix" values="0 0 0 0 0 0 0 0 0 0 0 0 0 0 0 0 0 0 127 0" result="hardAlpha"/>
<feOffset dy="4"/>
<feGaussianBlur stdDeviation="2"/>
<feComposite in2="hardAlpha" operator="out"/>
<feColorMatrix type="matrix" values="0 0 0 0 0 0 0 0 0 0 0 0 0 0 0 0 0 0 0.25 0"/>
<feBlend mode="normal" in2="BackgroundImageFix" result="effect1_dropShadow_1012_7907"/>
<feBlend mode="normal" in="SourceGraphic" in2="effect1_dropShadow_1012_7907" result="shape"/>
</filter>
</defs>
</svg>
