<svg width="46" height="48" viewBox="0 0 46 48" fill="none" xmlns="http://www.w3.org/2000/svg">
<path d="M19.6354 7.35572C20.3374 7.35572 20.9065 6.78662 20.9065 6.0846C20.9065 5.38258 20.3374 4.81348 19.6354 4.81348C18.9334 4.81348 18.3643 5.38258 18.3643 6.0846C18.3643 6.78662 18.9334 7.35572 19.6354 7.35572Z" fill="#19191D" stroke="#FFF7F6"/>
<path d="M29.7794 17.9482H9.44141V19.6431H29.7794V17.9482Z" fill="#19191D" stroke="#FFF7F6"/>
<path d="M19.6104 33.2021H9.44141V34.897H19.6104V33.2021Z" fill="#19191D" stroke="#FFF7F6"/>
<path d="M38.2017 31.5068C38.2017 34.3102 35.9206 36.5909 33.1172 36.5909V38.2857C36.8613 38.2857 39.8965 35.2507 39.8965 31.5068H38.2017Z" fill="#19191D" stroke="#FFF7F6"/>
<path d="M9.44141 28.1172V29.812H21.4406C21.5239 29.2334 21.6409 28.6659 21.8049 28.1172H9.44141Z" fill="#19191D" stroke="#FFF7F6"/>
<path d="M9.44141 23.0322V24.7271H23.4468C23.8728 24.1182 24.3521 23.5504 24.8818 23.0322H9.44141Z" fill="#19191D" stroke="#FFF7F6"/>
<path d="M33.169 21.3376C27.5529 21.3376 23.0001 25.8905 23.0001 31.5066C23.0001 33.3759 23.5132 35.1218 24.3932 36.6268L18.1323 42.9109C17.9969 43.0465 17.9079 43.2074 17.8281 43.3704C13.9022 43.3704 9.97233 43.3705 6.05166 43.3705C5.11707 43.3705 4.35683 42.6102 4.35683 41.6757V11.1689C4.35683 10.2344 5.11707 9.47404 6.05166 9.47404H9.73177C9.54852 9.99224 9.44598 10.5485 9.44153 11.1283V14.5585H29.7794V11.1689C29.7794 10.5741 29.6743 10.0046 29.4866 9.47404H33.169C34.1035 9.47404 34.8638 10.2344 34.8638 11.1689C34.8638 12.6801 34.8638 15.9311 34.8638 19.7781C35.4424 19.8613 36.0099 19.9785 36.5587 20.1424C36.5587 17.2889 36.5586 14.3234 36.5586 11.1688C36.5586 9.29672 35.0411 7.77911 33.169 7.77911H28.4633C27.8356 7.08179 27.0293 6.54824 26.1029 6.28172C25.3225 6.05737 24.7219 5.45677 24.4974 4.6764C23.8869 2.55321 21.93 1 19.6104 1C17.2908 1 15.3341 2.55321 14.7236 4.6763C14.4988 5.45761 13.8967 6.05748 13.1154 6.28257C12.19 6.5493 11.3844 7.08232 10.7573 7.77921H6.05177C4.17962 7.77921 2.66211 9.29683 2.66211 11.1689V41.6757C2.66211 43.5477 4.17962 45.0654 6.05177 45.0654C9.68601 45.0654 13.7224 45.0654 17.9738 45.0654C18.0301 45.1455 18.0637 45.2363 18.1355 45.3079L19.3356 46.505C19.6664 46.8352 20.0995 46.9999 20.5325 46.9999C20.967 46.9999 21.4012 46.834 21.7322 46.5022L23.1647 45.0655C26.4358 45.0655 29.7819 45.0655 33.169 45.0655C35.0412 45.0655 36.5587 43.5478 36.5587 41.6758C36.5587 41.4779 36.5587 41.2815 36.5587 41.0846C40.5057 39.6872 43.338 35.9326 43.338 31.5067C43.338 25.8905 38.7853 21.3376 33.169 21.3376ZM11.1364 11.1416C11.148 9.65168 12.1547 8.32336 13.5845 7.9113C14.9309 7.5234 15.9655 6.48913 16.3521 5.14492C16.7671 3.70219 18.1069 2.69483 19.6104 2.69483C21.1139 2.69483 22.4537 3.70219 22.8685 5.14492C23.2553 6.48998 24.2893 7.52393 25.6344 7.91067C27.0769 8.32558 28.0844 9.66545 28.0844 11.1688V12.8636H11.1364V11.1416ZM20.5325 45.3051L19.3334 44.1067L25.3784 38.037C25.7423 38.4707 26.1437 38.871 26.5741 39.2384L20.5325 45.3051ZM34.8639 41.6757C34.8639 42.6102 34.1036 43.3705 33.169 43.3705C30.3937 43.3705 27.6258 43.3705 24.8546 43.3705L27.9771 40.2387C29.4983 41.1452 31.2697 41.6756 33.169 41.6756C33.7478 41.6756 34.3116 41.6161 34.8639 41.5232C34.8639 41.5717 34.8639 41.6361 34.8639 41.6757ZM33.169 39.9808C28.4964 39.9808 24.6949 36.1793 24.6949 31.5066C24.6949 26.834 28.4964 23.0325 33.169 23.0325C37.8417 23.0325 41.6432 26.834 41.6432 31.5066C41.6432 36.1793 37.8417 39.9808 33.169 39.9808Z" fill="#19191D" stroke="#FFF7F6"/>
</svg>
