<svg width="16" height="16" viewBox="0 0 16 16" fill="none" xmlns="http://www.w3.org/2000/svg">
<g clip-path="url(#clip0_1433_7676)">
<path d="M6.59363 4.84369C2.9751 4.84369 3.29092e-05 7.33203 3.29092e-05 10.3908C3.29092e-05 11.6134 0.474283 12.856 1.344 13.8191L0.115845 15.2226C-0.00499834 15.3608 -0.0343108 15.5572 0.0421579 15.7247C0.118158 15.8922 0.284783 15.9998 0.468783 15.9998H7.06238C9.7341 15.9998 13.1872 13.6992 13.1872 10.3908C13.1872 7.33203 10.2122 4.84369 6.59363 4.84369ZM3.74994 11.2499C3.23313 11.2499 2.81247 10.8293 2.81247 10.3125C2.81247 9.79566 3.23316 9.375 3.74994 9.375C4.26672 9.375 4.68741 9.79569 4.68741 10.3125C4.68744 10.8293 4.26675 11.2499 3.74994 11.2499ZM6.59363 11.2499C6.07681 11.2499 5.65616 10.8293 5.65616 10.3125C5.65616 9.79566 6.07685 9.375 6.59363 9.375C7.11041 9.375 7.5311 9.79569 7.5311 10.3125C7.5311 10.8293 7.11044 11.2499 6.59363 11.2499ZM9.43731 11.2499C8.9205 11.2499 8.49985 10.8293 8.49985 10.3125C8.49985 9.79566 8.92053 9.375 9.43731 9.375C9.9541 9.375 10.3748 9.79569 10.3748 10.3125C10.3748 10.8293 9.95413 11.2499 9.43731 11.2499Z" fill="black"/>
<path d="M15.8864 9.53837L14.7828 8.25071C15.5706 7.36178 15.9995 6.27778 15.9995 5.15631C15.9995 2.31321 13.2658 0.000183105 9.90591 0.000183105C6.86763 0.000183105 4.28635 1.89359 3.83057 4.35799C4.67832 4.06993 5.62903 3.90618 6.5935 3.90618C10.6983 3.90618 14.0707 6.77321 14.12 10.3124H15.5308C15.9312 10.3125 16.1462 9.84096 15.8864 9.53837Z" fill="black"/>
</g>
<defs>
<clipPath id="clip0_1433_7676">
<rect width="16" height="16" fill="white"/>
</clipPath>
</defs>
</svg>
