<svg width="18" height="16" viewBox="0 0 18 16" fill="none" xmlns="http://www.w3.org/2000/svg">
<path d="M8.99998 0C13.9391 0 18 3.39648 18 7.57151C18 9.24038 17.3526 10.9365 16.1655 12.2511L17.8419 14.1667C18.0068 14.3554 18.0468 14.6235 17.9425 14.8521C17.8387 15.0808 17.6113 15.2277 17.3601 15.2277H8.36015C4.71337 15.2277 0 12.0874 0 7.57151C0 3.39648 4.06084 0 8.99998 0ZM12.8815 8.74426C13.5869 8.74426 14.1611 8.17004 14.1611 7.46466C14.1611 6.75923 13.5869 6.18505 12.8815 6.18505C12.1761 6.18505 11.6019 6.75927 11.6019 7.46466C11.6018 8.17004 12.1761 8.74426 12.8815 8.74426ZM8.99998 8.74426C9.70541 8.74426 10.2796 8.17004 10.2796 7.46466C10.2796 6.75923 9.70536 6.18505 8.99998 6.18505C8.29459 6.18505 7.72037 6.75927 7.72037 7.46466C7.72037 8.17004 8.29455 8.74426 8.99998 8.74426ZM5.11846 8.74426C5.82389 8.74426 6.39807 8.17004 6.39807 7.46466C6.39807 6.75923 5.82385 6.18505 5.11846 6.18505C4.41308 6.18505 3.83886 6.75927 3.83886 7.46466C3.83886 8.17004 4.41304 8.74426 5.11846 8.74426Z" fill="#575757"/>
</svg>
