<svg width="24" height="24" viewBox="0 0 24 24" fill="none" xmlns="http://www.w3.org/2000/svg">
<circle cx="12" cy="12" r="12" fill="white"/>
<path d="M17.1237 15.3606C17.4692 15.7064 17.4692 16.2443 17.1237 16.5901C16.9509 16.7631 16.7398 16.8399 16.5095 16.8399C16.2792 16.8399 16.068 16.7631 15.8953 16.5901L12.3828 13.0743L8.87033 16.5901C8.69758 16.7631 8.48646 16.8399 8.25613 16.8399C8.02581 16.8399 7.81468 16.7631 7.64194 16.5901C7.29645 16.2443 7.29645 15.7064 7.64194 15.3606L11.1544 11.8447L7.64194 8.32886C7.29645 7.98304 7.29645 7.44509 7.64194 7.09927C7.98743 6.75345 8.52484 6.75345 8.87033 7.09927L12.3828 10.6151L15.8953 7.09927C16.2408 6.75345 16.7782 6.75345 17.1237 7.09927C17.4692 7.44509 17.4692 7.98304 17.1237 8.32886L13.6112 11.8447L17.1237 15.3606Z" fill="#19191D"/>
</svg>
