<svg width="30" height="30" viewBox="0 0 30 30" fill="none" xmlns="http://www.w3.org/2000/svg">
<circle cx="15" cy="15" r="15" fill="black"/>
<path d="M20.7833 18.4667C21.1519 18.8352 21.1519 19.4085 20.7833 19.777C20.5991 19.9613 20.3739 20.0431 20.1282 20.0431C19.8825 20.0431 19.6573 19.9613 19.4731 19.777L15.7264 16.0304L11.9797 19.777C11.7955 19.9613 11.5703 20.0431 11.3246 20.0431C11.0789 20.0431 10.8537 19.9613 10.6695 19.777C10.3009 19.4085 10.3009 18.8352 10.6695 18.4667L14.4161 14.72L10.6695 10.9734C10.3009 10.6049 10.3009 10.0316 10.6695 9.66311C11.038 9.29459 11.6112 9.29459 11.9797 9.66311L15.7264 13.4097L19.4731 9.66311C19.8416 9.29459 20.4148 9.29459 20.7833 9.66311C21.1519 10.0316 21.1519 10.6049 20.7833 10.9734L17.0367 14.72L20.7833 18.4667Z" fill="white"/>
</svg>
