<svg width="20" height="20" viewBox="0 0 20 20" fill="none" xmlns="http://www.w3.org/2000/svg">
<path d="M19.996 7.64603C19.9939 7.62306 19.9893 7.60036 19.9823 7.57837C19.9777 7.55872 19.9714 7.53954 19.9633 7.52102C19.954 7.50293 19.9428 7.48582 19.93 7.47C19.9171 7.45121 19.9023 7.43391 19.8857 7.41832C19.8803 7.41367 19.878 7.4073 19.8723 7.40265L16.6665 4.91288V2.33244C16.6665 1.78014 16.2188 1.33238 15.6665 1.33238H12.0539L10.6075 0.20932C10.2502 -0.0693663 9.74909 -0.0693663 9.39177 0.20932L7.94501 1.33238H4.33249C3.78019 1.33238 3.33243 1.7801 3.33243 2.33244V4.91292L0.127624 7.40269C0.121959 7.40738 0.119615 7.41371 0.114303 7.41836C0.0977003 7.43391 0.0828167 7.45125 0.0699645 7.47004C0.0571513 7.48586 0.0459789 7.50293 0.0366425 7.52106C0.0285561 7.53954 0.0222277 7.55876 0.0176571 7.57841C0.0107037 7.60009 0.00613312 7.62243 0.00398458 7.64509C0.00398458 7.65208 0 7.6581 0 7.66509V18.9999C0.000468774 19.212 0.069066 19.4182 0.195674 19.5883C0.197666 19.5913 0.198018 19.595 0.200323 19.5976C0.202667 19.6003 0.207667 19.6033 0.210987 19.6069C0.398262 19.8534 0.689527 19.9986 0.999035 20H19C19.3107 19.999 19.6031 19.8531 19.7907 19.6053C19.7933 19.602 19.7973 19.601 19.7996 19.5976C19.802 19.5943 19.8023 19.5913 19.8043 19.5883C19.9309 19.4182 19.9995 19.212 20 19V7.66603C20 7.65903 19.9963 7.65302 19.996 7.64603ZM9.79944 0.735323C9.91586 0.642818 10.0807 0.642818 10.1971 0.735323L10.9661 1.33235H9.03272L9.79944 0.735323ZM1.08302 19.3333L9.79948 12.5626C9.91597 12.4703 10.0807 12.4703 10.1972 12.5626L18.9159 19.3333H1.08302ZM19.3333 18.8136L10.6075 12.0366C10.2501 11.7581 9.74917 11.7581 9.39177 12.0366L0.665659 18.8136V8.17371L6.12828 12.4156C6.27383 12.5285 6.4833 12.502 6.59616 12.3564C6.70901 12.2109 6.68253 12.0014 6.53697 11.8885L0.987355 7.57934L3.33247 5.75691V8.3327C3.33247 8.51681 3.48174 8.66604 3.66581 8.66604C3.84992 8.66604 3.99915 8.51677 3.99915 8.3327V2.3324C3.99915 2.14829 4.14838 1.99906 4.33249 1.99906H15.6664C15.8505 1.99906 15.9997 2.14829 15.9997 2.3324V8.3327C15.9997 8.51681 16.1489 8.66604 16.3331 8.66604C16.5172 8.66604 16.6664 8.51677 16.6664 8.3327V5.75691L19.0115 7.57934L13.4522 11.8962C13.3566 11.9687 13.3073 12.087 13.3231 12.2059C13.339 12.3249 13.4176 12.4262 13.5289 12.471C13.6401 12.5159 13.767 12.4976 13.8609 12.4229L19.3332 8.17371V18.8136H19.3333Z" fill="#19191D"/>
<path d="M13.9994 7.99924V6.66585C13.9994 4.4566 12.2085 2.66565 9.99922 2.66565C7.78997 2.66565 5.99902 4.4566 5.99902 6.66585C5.99902 8.8751 7.78997 10.6661 9.99922 10.6661C10.1833 10.6661 10.3326 10.5168 10.3326 10.3327C10.3326 10.1486 10.1833 9.99938 9.99922 9.99938C8.15819 9.99938 6.66574 8.50692 6.66574 6.66589C6.66574 4.82486 8.15819 3.3324 9.99922 3.3324C11.8403 3.3324 13.3327 4.82486 13.3327 6.66589V7.99928C13.3327 8.3675 13.0342 8.66599 12.666 8.66599C12.2978 8.66599 11.9993 8.3675 11.9993 7.99928V6.66589C11.9993 6.48178 11.8501 6.33255 11.6659 6.33255C11.4818 6.33255 11.3326 6.48178 11.3326 6.66589C11.3326 7.4023 10.7356 7.99928 9.99922 7.99928C9.26282 7.99928 8.66584 7.4023 8.66584 6.66589C8.66584 5.92949 9.26282 5.3325 9.99922 5.3325C10.1833 5.3325 10.3326 5.18328 10.3326 4.99917C10.3326 4.81506 10.1833 4.66583 9.99922 4.66583C9.10406 4.66384 8.31656 5.25687 8.07124 6.11778C7.82591 6.97868 8.18245 7.89775 8.94421 8.36793C9.70597 8.83811 10.6873 8.7449 11.3469 8.13968C11.4195 8.84463 12.0323 9.3688 12.7399 9.33134C13.4477 9.29384 14.0016 8.70795 13.9994 7.99924Z" fill="#19191D"/>
</svg>
