<svg width="25" height="25" viewBox="0 0 25 25" fill="none" xmlns="http://www.w3.org/2000/svg">
<path d="M11.7788 18.5005C11.5908 18.3625 11.3262 18.4028 11.188 18.5909L11.1358 18.662C10.9977 18.8499 11.0379 19.1142 11.2257 19.2525C11.3012 19.3081 11.389 19.335 11.4761 19.335C11.6056 19.335 11.7335 19.2756 11.8163 19.1634L11.8693 19.0914C12.0075 18.9032 11.9669 18.6387 11.7788 18.5005Z" fill="#5E5E5E"/>
<path d="M11.8891 22.5216L10.802 20.5449L11.817 19.1626C11.9552 18.9745 11.9146 18.7099 11.7264 18.5717C11.5383 18.4335 11.2737 18.4741 11.1356 18.6623L9.9609 20.2622C9.86349 20.3948 9.85196 20.5718 9.93121 20.716L11.1484 22.929V22.9289C11.2254 23.0688 11.37 23.148 11.5192 23.148C11.5881 23.1479 11.6579 23.1311 11.7225 23.0956C11.927 22.9831 12.0016 22.7261 11.8891 22.5216Z" fill="#5E5E5E"/>
<path d="M15.0392 20.2622L13.8693 18.6688C13.7723 18.5368 13.6079 18.4725 13.447 18.5044C13.2862 18.536 13.1583 18.6578 13.1185 18.8167C13.088 18.9388 13.1134 19.068 13.1879 19.1694L14.1979 20.545L13.1182 22.5082C13.0839 22.5706 13.0659 22.6409 13.0659 22.7121C13.0659 22.905 13.1966 23.0735 13.3834 23.1215C13.4185 23.1305 13.4538 23.1349 13.4886 23.1349C13.6399 23.1349 13.7833 23.0532 13.859 22.9159L15.0688 20.7162C15.1482 20.5719 15.1366 20.3948 15.0392 20.2622Z" fill="#5E5E5E"/>
<path d="M15.709 13.6198C15.57 13.5468 15.4019 13.5568 15.2726 13.6459C15.0212 13.8191 14.7879 14.0026 14.5792 14.1912C13.4417 15.2196 12.3609 15.0804 12.3186 15.0743C12.2931 15.0703 12.2672 15.0685 12.2416 15.0693C11.792 15.0808 10.9814 14.67 10.124 13.9966C9.99282 13.8936 9.85835 13.7955 9.72407 13.7048C9.59458 13.6173 9.42725 13.6085 9.28926 13.6819C9.15122 13.7552 9.06494 13.8988 9.06494 14.0551V15.5051C9.06494 15.6334 9.12329 15.7546 9.22329 15.8348C9.23511 15.8444 9.24741 15.8531 9.26011 15.8613L12.2572 17.864C12.2577 17.8643 12.2582 17.8647 12.2586 17.865L12.2666 17.8703C12.3371 17.917 12.4184 17.9406 12.5 17.9406C12.5687 17.9406 12.6373 17.9239 12.7001 17.8904C12.7133 17.8833 12.726 17.8755 12.7382 17.8672C12.7396 17.8663 12.741 17.8654 12.7425 17.8644C12.7441 17.8633 12.7458 17.8622 12.7475 17.8611L15.7375 15.8631C15.7495 15.8554 15.7612 15.8472 15.7725 15.8385C15.8751 15.7584 15.9351 15.6355 15.9351 15.5053V13.994C15.9351 13.8369 15.8481 13.6929 15.709 13.6198ZM15.0897 15.2791L12.5 17.0096L9.9103 15.279V14.8946C10.5409 15.3529 11.4685 15.9149 12.2246 15.9149C12.2261 15.9149 12.2279 15.9149 12.2295 15.9149C12.4834 15.9429 13.7779 16.0193 15.0898 14.8685V15.2791H15.0897Z" fill="#5E5E5E"/>
<path d="M12.9171 17.4484C12.8893 17.2808 12.7636 17.1462 12.5983 17.1067C12.4329 17.0675 12.2601 17.1308 12.1595 17.2678L11.188 18.5911C11.0498 18.7793 11.0903 19.0438 11.2786 19.1819C11.3539 19.2373 11.4415 19.264 11.5284 19.264C11.6583 19.264 11.7866 19.2042 11.8695 19.0913L12.8359 17.775C12.8909 17.7031 12.9229 17.6137 12.9229 17.5181C12.9229 17.4948 12.9209 17.4714 12.9171 17.4484Z" fill="#5E5E5E"/>
<path d="M18.9393 3.82188C18.9309 3.75567 18.7329 2.32666 17.3878 1.76294C17.4269 1.51197 17.4228 1.18941 17.2634 0.875587C17.0493 0.453809 16.6267 0.178955 16.0073 0.0585449C15.9807 0.0533691 15.9538 0.0507812 15.9267 0.0507812H10.2535C7.94986 0.0507812 6.07568 1.92491 6.07568 4.22862V6.45475C6.07568 7.03473 6.27339 7.60031 6.63228 8.04718C6.81021 8.26877 7.02935 8.65573 7.0624 9.24079C7.07529 9.46921 7.26651 9.64572 7.49634 9.63937C7.72505 9.63293 7.90708 9.44562 7.90708 9.21686V6.31451C8.1941 5.12755 9.17364 4.89654 9.34205 4.86534H11.1771C11.393 4.86534 11.6052 4.83238 11.8081 4.76734C12.157 4.65543 12.7106 4.44947 13.1136 4.29639C13.3833 4.1939 13.6818 4.19015 13.9541 4.28585L15.9187 4.9755C16.9008 5.3378 17.0761 6.20001 17.0978 6.33546V9.81872C17.0978 10.04 17.2684 10.2235 17.489 10.24C17.4997 10.2407 17.5103 10.2412 17.5208 10.2412C17.7281 10.2411 17.9072 10.0892 17.9385 9.88107C17.9402 9.87019 18.109 8.78 18.6532 7.90715C18.8426 7.60329 18.9427 7.25685 18.9427 6.90529V3.87525C18.9427 3.85743 18.9416 3.83961 18.9393 3.82188ZM18.0973 6.90509C18.0973 7.09391 18.044 7.28122 17.9431 7.44777V6.30656C17.9431 6.29127 17.9423 6.27609 17.9406 6.2609C17.934 6.19952 17.7593 4.75099 16.2073 4.18087C16.2054 4.18018 16.2035 4.1795 16.2016 4.17882L14.2341 3.48809C14.0123 3.41021 13.7802 3.37134 13.5483 3.37134C13.2988 3.37134 13.0496 3.41632 12.8134 3.50616C12.2491 3.72052 11.8122 3.87828 11.5499 3.96236C11.4306 4.00059 11.3052 4.02003 11.1771 4.02003H9.30787C9.28975 4.02003 9.27159 4.0212 9.25357 4.02349C9.18204 4.03277 7.49615 4.27252 7.07188 6.17413C7.06514 6.20436 7.06172 6.23522 7.06172 6.26617V7.1361C6.96968 6.9234 6.92095 6.69108 6.92095 6.4548V4.22872C6.92095 2.39122 8.41592 0.896242 10.2534 0.896242H15.884C16.1171 0.9459 16.4004 1.0478 16.5079 1.25513C16.6395 1.50889 16.4896 1.8583 16.4894 1.8586C16.4354 1.97359 16.436 2.10674 16.4909 2.22124C16.5459 2.33575 16.6495 2.41944 16.7731 2.44917C17.8491 2.70821 18.0686 3.74029 18.0972 3.90723V6.90509H18.0973Z" fill="#5E5E5E"/>
<path d="M17.941 6.26087C17.9344 6.19949 17.7597 4.75095 16.2077 4.18083C16.2058 4.18015 16.2039 4.17947 16.202 4.17878L14.2344 3.48806C13.774 3.32644 13.2695 3.33288 12.8137 3.50603C12.2494 3.72038 11.8125 3.87815 11.5502 3.96228C11.4309 4.00051 11.3055 4.0199 11.1774 4.0199H9.30816C9.29004 4.0199 9.27188 4.02107 9.25386 4.02336C9.18233 4.03264 7.49644 4.27239 7.07217 6.174C7.06543 6.20423 7.06201 6.23508 7.06201 6.26604V9.89964C7.06201 9.90277 7.06206 9.90589 7.06211 9.90902C7.06489 10.0352 7.1542 13.0161 9.21377 14.3793L9.22442 14.3868C9.23326 14.3931 9.2421 14.3993 9.25132 14.4055C9.36876 14.4848 9.48668 14.5709 9.60201 14.6614C10.202 15.1326 11.3327 15.9148 12.2247 15.9148C12.2264 15.9148 12.2279 15.9148 12.2297 15.9148C12.2781 15.9202 12.3646 15.9273 12.4819 15.9273C12.9874 15.9273 14.0659 15.7948 15.1462 14.8183C15.3275 14.6544 15.5313 14.4942 15.7523 14.3419L15.7839 14.3198C15.7942 14.3125 15.8045 14.3052 15.8152 14.2981C16.5022 13.8367 17.692 12.646 17.9418 9.85628C17.9429 9.84378 17.9435 9.83114 17.9435 9.81854V6.30652C17.9435 6.29129 17.9426 6.2761 17.941 6.26087ZM17.0981 9.79945C16.8678 12.3171 15.795 13.2932 15.3438 13.5962C15.3278 13.607 15.3119 13.6182 15.2961 13.6293L15.2727 13.6458C15.0213 13.819 14.788 14.0025 14.5793 14.1911C13.446 15.2156 12.3688 15.0812 12.316 15.0738C12.2914 15.0702 12.2665 15.0686 12.2417 15.0693C11.7921 15.0808 10.9816 14.67 10.1241 13.9966C9.99293 13.8935 9.85845 13.7954 9.72437 13.7049L9.71397 13.6976C9.70382 13.6904 9.69371 13.6832 9.68179 13.6753C8.01978 12.5752 7.91104 10.001 7.90737 9.89354V6.31443C8.19541 5.12312 9.18101 4.89475 9.34166 4.86526H11.1774C11.3933 4.86526 11.6055 4.8323 11.8084 4.76726C12.1573 4.65535 12.711 4.44939 13.1139 4.29631C13.3836 4.19382 13.6821 4.19006 13.9544 4.28576L15.919 4.97541C16.9011 5.33772 17.0764 6.19993 17.0981 6.33538V9.79945H17.0981Z" fill="#5E5E5E"/>
<path d="M12.8782 17.329C12.8124 17.1973 12.6827 17.1093 12.536 17.0968C12.3895 17.0847 12.2466 17.1491 12.1594 17.2679L11.1469 18.6469C11.0089 18.835 11.0492 19.0993 11.2372 19.2376C11.3126 19.293 11.4003 19.3199 11.4873 19.3199C11.617 19.3199 11.745 19.2603 11.8278 19.1479L12.8404 17.7739C12.894 17.7013 12.9229 17.6084 12.9229 17.5182C12.9229 17.4526 12.9075 17.3878 12.8782 17.329Z" fill="#5E5E5E"/>
<path d="M12.9053 24.1346C12.7465 23.9685 12.4842 23.9597 12.3146 24.1148L12.218 24.2032C12.0733 24.3355 12.0386 24.5499 12.1342 24.7211L12.1372 24.7264C12.2017 24.8421 12.3169 24.9208 12.4481 24.939C12.4675 24.9417 12.487 24.9431 12.5063 24.9431C12.6176 24.9431 12.7253 24.8991 12.8052 24.8192L12.8988 24.7255C13.0612 24.5631 13.0641 24.3006 12.9053 24.1346Z" fill="#5E5E5E"/>
<path d="M12.7821 24.2032L12.6855 24.1149C12.516 23.9598 12.2536 23.9686 12.0948 24.1346C11.9359 24.3007 11.9389 24.5633 12.1014 24.7257L12.1951 24.8194C12.2749 24.8992 12.3827 24.9432 12.4939 24.9432C12.5138 24.9432 12.5338 24.9418 12.5538 24.9389C12.6854 24.9201 12.8005 24.8404 12.8646 24.7238L12.8675 24.7185C12.9612 24.5476 12.9259 24.3347 12.7821 24.2032Z" fill="#5E5E5E"/>
<path d="M12.7892 24.2098L12.7887 24.2093C12.7234 24.1483 12.639 24.108 12.5459 24.0978C12.4214 24.0843 12.3 24.1265 12.2118 24.2086L12.2105 24.2098C12.1251 24.2877 12.0753 24.3974 12.0729 24.513C12.0704 24.6287 12.1154 24.7403 12.1974 24.8218L12.2018 24.8263C12.2843 24.9082 12.392 24.9492 12.4999 24.9492C12.6081 24.9492 12.7162 24.9079 12.7987 24.8255L12.8031 24.821C12.8848 24.7393 12.9295 24.6279 12.9268 24.5124C12.9243 24.397 12.8745 24.2876 12.7892 24.2098Z" fill="#5E5E5E"/>
<path d="M12.637 17.1089C12.462 17.0528 12.2699 17.1178 12.1633 17.2677C12.0441 17.4356 12.0637 17.6643 12.209 17.8103C12.2907 17.8924 12.3992 17.9345 12.5086 17.9345C12.5935 17.9345 12.6788 17.9091 12.7525 17.8573C12.865 17.7781 12.9319 17.6492 12.9319 17.5116V17.5106C12.9319 17.3266 12.8123 17.1648 12.637 17.1089Z" fill="#5E5E5E"/>
<path d="M12.8433 17.2642L12.8397 17.2594C12.7313 17.1126 12.5408 17.0521 12.3675 17.1092C12.1942 17.1663 12.0771 17.3282 12.0771 17.5106V17.5179C12.0771 17.6735 12.1645 17.8153 12.3016 17.889C12.3637 17.9223 12.4323 17.9388 12.5007 17.9388C12.5833 17.9388 12.6658 17.9148 12.7367 17.8679C12.8333 17.8039 12.8995 17.703 12.9196 17.5889C12.9398 17.4748 12.9122 17.3574 12.8433 17.2642Z" fill="#5E5E5E"/>
<path d="M17.5281 15.9364C17.4843 15.8206 17.3919 15.7299 17.2754 15.6882L15.6548 15.1073C15.6417 15.1026 15.628 15.0984 15.6145 15.0951C15.4988 15.0661 15.3762 15.0873 15.2771 15.1536L12.2743 17.1602C12.2735 17.1607 12.2726 17.1613 12.2718 17.1619L12.5076 17.5124L12.2665 17.1654C12.1784 17.2237 12.1153 17.313 12.0897 17.4154C12.0757 17.4717 12.0734 17.5304 12.0829 17.5876C12.0938 17.6529 12.1199 17.7148 12.1591 17.7683L14.3576 20.7625C14.4375 20.8714 14.5643 20.9351 14.6982 20.9351C14.7074 20.9351 14.7166 20.9347 14.7259 20.9341C14.8699 20.9246 14.9991 20.8425 15.0687 20.716L17.5031 16.2898C17.5628 16.1813 17.5719 16.0521 17.5281 15.9364ZM14.6471 19.7284L13.1019 17.6239L15.5698 15.9748L16.5235 16.3167L14.6471 19.7284Z" fill="#5E5E5E"/>
<path d="M12.9164 17.4451C12.8965 17.3316 12.8312 17.2312 12.7355 17.167L9.72269 15.1537C9.62679 15.0896 9.50857 15.0676 9.39593 15.0926C9.37864 15.0964 9.36165 15.1014 9.345 15.1073L7.72435 15.6883C7.60784 15.73 7.51551 15.8208 7.47171 15.9365C7.42791 16.0523 7.43699 16.1814 7.49666 16.2899L9.93108 20.7161C10.0006 20.8425 10.1299 20.9247 10.2739 20.9342C10.283 20.9348 10.2923 20.935 10.3014 20.935C10.4354 20.935 10.5621 20.8714 10.6422 20.7624L11.8169 19.1626C11.8178 19.1614 11.8187 19.16 11.8197 19.1587L12.8407 17.768C12.9089 17.6752 12.9362 17.5586 12.9164 17.4451ZM11.1355 18.6621C11.1345 18.6635 11.1335 18.6648 11.1325 18.6662L10.3526 19.7285L8.4761 16.3168L9.42991 15.9749L11.8977 17.624L11.1355 18.6621Z" fill="#5E5E5E"/>
<path d="M24.9793 23.1521L24.434 19.8595C24.2622 18.8218 23.541 17.9549 22.552 17.5972L17.2769 15.6887C17.1142 15.6299 16.9324 15.676 16.8175 15.805C16.7026 15.934 16.6777 16.1201 16.7549 16.2748L17.8562 18.4835L16.7755 18.5002C16.6288 18.5024 16.4937 18.5806 16.4187 18.7067C16.3437 18.8329 16.3395 18.9889 16.4076 19.1189L16.8508 19.9652L12.3146 24.115C12.3099 24.1193 12.3054 24.1236 12.3009 24.128L12.2073 24.2216C12.0746 24.3544 12.0453 24.5587 12.1354 24.7233L12.1387 24.7293C12.2128 24.8648 12.355 24.9491 12.5095 24.9491H23.4554C23.9101 24.9491 24.3395 24.7503 24.6335 24.4035C24.9276 24.0567 25.0536 23.6006 24.9793 23.1521ZM23.9889 23.8568C23.8557 24.0138 23.6613 24.1038 23.4555 24.1038H13.5792L17.6617 20.3692C17.8033 20.2398 17.84 20.0313 17.7509 19.8613L17.4751 19.3348L18.5408 19.3184C18.6861 19.3162 18.8199 19.2395 18.8955 19.1154C18.9709 18.9912 18.9774 18.8371 18.9126 18.7071L17.9831 16.843L22.2646 18.392C22.9665 18.6459 23.4783 19.2611 23.6002 19.9975L24.1455 23.2902C24.1455 23.2902 24.1455 23.2902 24.1455 23.2902C24.1791 23.4933 24.1221 23.6997 23.9889 23.8568Z" fill="#5E5E5E"/>
<path d="M12.7928 24.2132L12.7879 24.2087C12.6206 24.0573 12.3636 24.064 12.2045 24.2241L12.2001 24.2285C12.0797 24.3496 12.044 24.5312 12.1095 24.6889C12.1751 24.8465 12.3291 24.9492 12.4998 24.9492H12.5091C12.6839 24.9492 12.8406 24.8416 12.9034 24.6786C12.9664 24.5154 12.9224 24.3305 12.7928 24.2132Z" fill="#5E5E5E"/>
<path d="M12.7797 24.201C12.6837 24.1146 12.5536 24.0768 12.4262 24.0985C12.2989 24.12 12.1884 24.1987 12.1263 24.3119L12.1234 24.3172C12.0343 24.4796 12.0614 24.6812 12.1902 24.8144L12.1917 24.816C12.2746 24.9016 12.3849 24.9447 12.4956 24.9447C12.5974 24.9447 12.6995 24.9081 12.7803 24.8342L12.7848 24.8302C12.8231 24.7953 12.8548 24.7534 12.878 24.7069C12.9631 24.5368 12.921 24.3281 12.7797 24.201Z" fill="#5E5E5E"/>
<path d="M12.798 24.2268L12.7962 24.225C12.7951 24.2239 12.7939 24.2227 12.7929 24.2217L12.6991 24.128C12.6947 24.1236 12.6902 24.1192 12.6856 24.1151L8.14929 19.9653L8.5926 19.119C8.66072 18.989 8.65647 18.833 8.58152 18.7068C8.50652 18.5807 8.37146 18.5025 8.22473 18.5002L7.14392 18.4836L8.24529 16.2749C8.32244 16.1202 8.29754 15.9341 8.18264 15.805C8.06775 15.676 7.88572 15.6298 7.72327 15.6887L2.44821 17.5972C1.45914 17.9549 0.737951 18.8218 0.566124 19.8595L0.0208594 23.1522C-0.0534083 23.6008 0.0726662 24.0569 0.36671 24.4036C0.660802 24.7503 1.09025 24.9492 1.54484 24.9492H12.5C12.6712 24.9492 12.8255 24.8459 12.8907 24.6877C12.956 24.5295 12.9194 24.3475 12.798 24.2268ZM1.54489 24.1039C1.33903 24.1039 1.14459 24.0138 1.01149 23.8568C0.878381 23.6998 0.821349 23.4933 0.854943 23.2902L1.40021 19.9976C1.52213 19.2611 2.0339 18.646 2.73581 18.3921L7.01731 16.8431L6.08781 18.707C6.02297 18.8371 6.02942 18.9912 6.10495 19.1153C6.18039 19.2395 6.31433 19.3161 6.45959 19.3183L7.52532 19.3348L7.24954 19.8613C7.16052 20.0312 7.19714 20.2398 7.33865 20.3693L11.4212 24.1039H1.54489Z" fill="#5E5E5E"/>
<path d="M13.9389 19.0214C13.9694 18.8993 13.9439 18.7701 13.8695 18.6687L12.8409 17.2678C12.7328 17.1206 12.5421 17.062 12.3686 17.1189C12.2749 17.1497 12.1977 17.2117 12.1463 17.2909L11.1365 18.6611C11.1221 18.6806 11.1092 18.7016 11.0983 18.7234C11.0291 18.8618 11.0411 19.027 11.1295 19.154L11.5595 19.7715L11.1014 22.659C11.0867 22.7518 11.1033 22.8467 11.1485 22.929L12.1299 24.7132C12.2041 24.8483 12.3461 24.9322 12.5002 24.9322C12.6544 24.9322 12.7963 24.8483 12.8706 24.7132L13.8593 22.9157C13.8935 22.8533 13.9116 22.7833 13.9116 22.7121V22.7118C13.9116 22.6897 13.9098 22.6675 13.9063 22.6456L13.4503 19.7715L13.8757 19.1608C13.9049 19.1185 13.9265 19.0712 13.9389 19.0214ZM12.5002 23.6325L11.959 22.6484L12.4211 19.7359C12.4382 19.628 12.4129 19.5177 12.3505 19.4281L11.9963 18.9194L12.5015 18.234L13.0093 18.9256L12.6593 19.4281C12.5969 19.5177 12.5716 19.628 12.5887 19.7359L13.0487 22.6352L12.5002 23.6325Z" fill="#5E5E5E"/>
</svg>
