<svg width="17" height="17" viewBox="0 0 17 17" fill="none" xmlns="http://www.w3.org/2000/svg">
<g clip-path="url(#clip0_3401_8505)">
<path d="M15.2292 12.75H13.1042C12.9087 12.75 12.75 12.5913 12.75 12.3958C12.75 12.2003 12.9087 12.0417 13.1042 12.0417H15.2292C15.815 12.0417 16.2917 11.565 16.2917 10.9792V6.02083C16.2917 5.43504 15.815 4.95833 15.2292 4.95833H1.77083C1.18504 4.95833 0.708333 5.43504 0.708333 6.02083V10.9792C0.708333 11.565 1.18504 12.0417 1.77083 12.0417H3.89583C4.09133 12.0417 4.25 12.2003 4.25 12.3958C4.25 12.5913 4.09133 12.75 3.89583 12.75H1.77083C0.794041 12.75 0 11.9552 0 10.9792V6.02083C0 5.04475 0.794041 4.25 1.77083 4.25H15.2292C16.206 4.25 17 5.04475 17 6.02083V10.9792C17 11.9552 16.206 12.75 15.2292 12.75Z" fill="#374EA2"/>
<path d="M10.2721 14.875H6.02214C5.82664 14.875 5.66797 14.7163 5.66797 14.5209C5.66797 14.3254 5.82664 14.1667 6.02214 14.1667H10.2721C10.4676 14.1667 10.6263 14.3254 10.6263 14.5209C10.6263 14.7163 10.4676 14.875 10.2721 14.875Z" fill="#374EA2"/>
<path d="M10.2721 13.4583H6.02214C5.82664 13.4583 5.66797 13.2997 5.66797 13.1042C5.66797 12.9087 5.82664 12.75 6.02214 12.75H10.2721C10.4676 12.75 10.6263 12.9087 10.6263 13.1042C10.6263 13.2997 10.4676 13.4583 10.2721 13.4583Z" fill="#374EA2"/>
<path d="M7.4388 12.0416H6.02214C5.82664 12.0416 5.66797 11.883 5.66797 11.6875C5.66797 11.492 5.82664 11.3333 6.02214 11.3333H7.4388C7.6343 11.3333 7.79297 11.492 7.79297 11.6875C7.79297 11.883 7.6343 12.0416 7.4388 12.0416Z" fill="#374EA2"/>
<path d="M13.1055 4.95833C12.91 4.95833 12.7513 4.79966 12.7513 4.60416V1.77083C12.7513 1.18504 12.2746 0.708333 11.6888 0.708333H5.3138C4.72801 0.708333 4.2513 1.18504 4.2513 1.77083V4.60416C4.2513 4.79966 4.09264 4.95833 3.89714 4.95833C3.70164 4.95833 3.54297 4.79966 3.54297 4.60416V1.77083C3.54297 0.794749 4.33701 0 5.3138 0H11.6888C12.6656 0 13.4596 0.794749 13.4596 1.77083V4.60416C13.4596 4.79966 13.301 4.95833 13.1055 4.95833Z" fill="#374EA2"/>
<path d="M11.6888 17H5.3138C4.33701 17 3.54297 16.2052 3.54297 15.2292V9.56248C3.54297 9.36698 3.70164 9.20831 3.89714 9.20831H13.1055C13.301 9.20831 13.4596 9.36698 13.4596 9.56248V15.2292C13.4596 16.2052 12.6656 17 11.6888 17ZM4.2513 9.91665V15.2292C4.2513 15.8149 4.72801 16.2917 5.3138 16.2917H11.6888C12.2746 16.2917 12.7513 15.8149 12.7513 15.2292V9.91665H4.2513Z" fill="#374EA2"/>
</g>
<defs>
<clipPath id="clip0_3401_8505">
<rect width="17" height="17" fill="white"/>
</clipPath>
</defs>
</svg>
