<svg width="32" height="26" viewBox="0 0 32 26" fill="none" xmlns="http://www.w3.org/2000/svg">
<path d="M27.1771 9.36987C28.0906 8.73862 28.6906 7.68468 28.6906 6.49287V5.18906V3.88606C28.6906 1.95869 27.1226 0.390686 25.1952 0.390686C23.2678 0.390686 21.6998 1.95875 21.6998 3.88606V5.18943V6.49287C21.6998 7.68475 22.2998 8.73868 23.2133 9.36987C21.6822 9.85262 20.3647 10.8491 19.4954 12.1316V11.3487C19.4954 9.42131 17.9274 7.85331 16 7.85331C14.0726 7.85331 12.5046 9.42137 12.5046 11.3487V12.1316C11.6354 10.8492 10.3178 9.85262 8.78669 9.36987C9.70019 8.73862 10.3002 7.68468 10.3002 6.49287V3.88612C10.3002 1.95875 8.73219 0.390749 6.80475 0.390749C5.05806 0.390749 3.6065 1.67856 3.34969 3.35456C3.32313 3.52793 3.30938 3.70544 3.30938 3.88612V6.49287C3.30938 7.68475 3.90944 8.73868 4.82288 9.36987C2.06544 10.2392 0 12.7751 0 15.6457V17.6807C0 17.9382 0.20875 18.1469 0.466188 18.1469H2.99856C3.256 18.1469 3.46475 17.9382 3.46475 17.6807C3.46475 17.4232 3.256 17.2145 2.99856 17.2145H0.932375V15.6457C0.932375 14.1741 1.561 12.7666 2.70237 11.6821C3.36812 11.0496 4.17069 10.5754 5.02756 10.2905L5.58456 11.3726L4.77913 14.8687C4.74138 15.0325 4.79475 15.2039 4.91869 15.3173L6.49 16.7554C6.57906 16.8369 6.69187 16.8777 6.80469 16.8777C6.9175 16.8777 7.03031 16.837 7.11938 16.7554L8.69063 15.3173C8.81456 15.2039 8.86788 15.0325 8.83019 14.8687L8.02481 11.3727L8.58181 10.2905C9.43869 10.5754 10.2413 11.0495 10.9071 11.6821C11.7448 12.478 12.3058 13.4481 12.5453 14.4897C12.5603 14.5867 12.58 14.682 12.6027 14.7761C12.6517 15.0621 12.677 15.3526 12.677 15.6457V17.2145H4.55244C4.295 17.2145 4.08625 17.4232 4.08625 17.6807C4.08625 17.9382 4.295 18.1469 4.55244 18.1469H11.6149C10.1446 19.3704 9.19519 21.1622 9.19519 23.1081V25.1431C9.19519 25.4006 9.40394 25.6093 9.66138 25.6093H12.1938C12.4512 25.6093 12.6599 25.4006 12.6599 25.1431C12.6599 24.8856 12.4512 24.6769 12.1938 24.6769H10.1276V23.1081C10.1276 21.6366 10.7563 20.229 11.8976 19.1445C12.5634 18.512 13.3659 18.0379 14.2228 17.7529L14.7798 18.8351L13.9744 22.3312C13.9367 22.4949 13.9901 22.6663 14.114 22.7797L15.6853 24.2179C15.7744 24.2994 15.8872 24.3402 16 24.3402C16.1128 24.3402 16.2257 24.2995 16.3148 24.2179L17.886 22.7797C18.0099 22.6663 18.0632 22.4949 18.0256 22.3312L17.2202 18.8351L17.7772 17.7529C18.6341 18.0379 19.4366 18.5119 20.1024 19.1445C21.2437 20.2289 21.8724 21.6366 21.8724 23.1081V24.6769H13.7477C13.4902 24.6769 13.2815 24.8856 13.2815 25.1431C13.2815 25.4006 13.4902 25.6093 13.7477 25.6093H22.3386C22.596 25.6093 22.8048 25.4006 22.8048 25.1431V23.1081C22.8048 21.1622 21.8554 19.3703 20.3851 18.1469H22.7692C23.0266 18.1469 23.2354 17.9382 23.2354 17.6807C23.2354 17.4232 23.0266 17.2145 22.7692 17.2145H19.3229V15.6456C19.3229 15.3524 19.3483 15.0617 19.3973 14.7756C19.4199 14.6818 19.4396 14.5869 19.4545 14.4903C19.6939 13.4484 20.255 12.4781 21.0929 11.682C21.7587 11.0495 22.5613 10.5754 23.4181 10.2904L23.9751 11.3726L23.1698 14.8687C23.132 15.0325 23.1854 15.2039 23.3093 15.3173L24.8806 16.7554C24.9696 16.8371 25.0824 16.8777 25.1952 16.8777C25.3081 16.8777 25.4209 16.837 25.5099 16.7554L27.0812 15.3173C27.2052 15.2039 27.2585 15.0325 27.2208 14.8687L26.4154 11.3726L26.9724 10.2905C27.8293 10.5754 28.6319 11.0496 29.2976 11.6821C30.439 12.7665 31.0676 14.1741 31.0676 15.6457V17.2145H24.3232C24.0658 17.2145 23.857 17.4232 23.857 17.6807C23.857 17.9382 24.0658 18.1469 24.3232 18.1469H31.5338C31.7912 18.1469 32 17.9382 32 17.6807V15.6457C32 12.7751 29.9346 10.2392 27.1771 9.36987ZM4.24169 3.88606C4.24169 2.47281 5.39144 1.32306 6.80475 1.32306C8.21806 1.32306 9.36781 2.47281 9.36781 3.88606V4.66593C8.28819 4.39962 7.84387 3.28825 7.82369 3.23643C7.75906 3.06575 7.60075 2.9485 7.41862 2.93644C7.2365 2.92462 7.06413 3.01962 6.9775 3.18025C6.96981 3.19462 6.23181 4.51856 4.24169 4.70212V3.88606ZM6.80481 15.7795L5.74888 14.8131L6.44825 11.7772H7.16138L7.86075 14.8131L6.80481 15.7795ZM5.95713 10.0592C6.04806 10.0442 6.13931 10.0316 6.23075 10.021C6.24369 10.0195 6.25663 10.0182 6.26956 10.0168C6.34206 10.0089 6.41456 10.0026 6.48719 9.9975C6.50731 9.99606 6.52744 9.99443 6.54763 9.99324C6.60719 9.98962 6.66675 9.98781 6.72625 9.98618C6.75244 9.98675 6.77838 9.98818 6.80469 9.98818C6.831 9.98818 6.85694 9.98675 6.88312 9.98618C6.94269 9.98787 7.00225 9.98968 7.06169 9.99324C7.08187 9.99443 7.102 9.99612 7.12225 9.9975C7.19488 10.0027 7.26731 10.0089 7.33975 10.0168C7.35275 10.0182 7.36575 10.0195 7.37875 10.021C7.47012 10.0316 7.56131 10.0442 7.65225 10.0592L7.248 10.8447H6.3615L5.95713 10.0592ZM6.90681 9.05325C6.875 9.05237 6.84319 9.05118 6.81119 9.05075C6.80694 9.05062 6.80275 9.05062 6.7985 9.05075H6.79844C6.7665 9.05118 6.73475 9.05237 6.70281 9.05325C5.33663 8.99943 4.24169 7.87187 4.24169 6.49281V5.63775C5.82806 5.51687 6.80269 4.79387 7.32163 4.2475C7.68513 4.77943 8.33687 5.454 9.36781 5.61806V6.49281C9.36788 7.87187 8.27294 8.99943 6.90681 9.05325ZM13.4369 11.3486C13.4369 9.93537 14.5868 8.78562 16 8.78562C16.265 8.78562 16.5207 8.826 16.7613 8.90106C17.8039 9.22606 18.563 10.2004 18.563 11.3487V12.1286C17.4834 11.8622 17.0391 10.7509 17.0189 10.6991C16.9543 10.5284 16.796 10.4112 16.6139 10.3991C16.4319 10.3877 16.2594 10.4823 16.1728 10.6429C16.165 10.6573 15.4271 11.9812 13.4369 12.1648V11.3486H13.4369ZM13.6095 16.9755V16.5021C13.7372 16.622 13.8736 16.7326 14.0181 16.8324C13.8801 16.8759 13.7439 16.9238 13.6095 16.9755ZM16 23.2421L14.9441 22.2756L15.6435 19.2397H16.3566L17.056 22.2756L16 23.2421ZM15.1525 17.5217C15.2434 17.5068 15.3347 17.4941 15.4261 17.4836C15.4391 17.4821 15.452 17.4808 15.4649 17.4794C15.5374 17.4715 15.6099 17.4652 15.6826 17.4601C15.7027 17.4586 15.7228 17.457 15.743 17.4558C15.8026 17.4522 15.8621 17.4504 15.9216 17.4487C15.9478 17.4493 15.9738 17.4507 16.0001 17.4507C16.0264 17.4507 16.0523 17.4493 16.0785 17.4487C16.1381 17.4505 16.1976 17.4522 16.2571 17.4558C16.2772 17.457 16.2974 17.4587 16.3176 17.4601C16.3902 17.4652 16.4627 17.4715 16.5351 17.4794C16.5481 17.4807 16.5611 17.4821 16.5741 17.4836C16.6654 17.4942 16.7567 17.5068 16.8476 17.5217L16.4433 18.3074H15.5568L15.1525 17.5217ZM18.3905 16.9755C18.2561 16.9237 18.12 16.8759 17.9819 16.8324C18.1264 16.7326 18.2628 16.6219 18.3905 16.5021V16.9755ZM18.5631 13.9554C18.5631 14.0869 18.5531 14.2162 18.5339 14.3425C18.5175 14.4162 18.5029 14.4905 18.4893 14.565C18.2226 15.6529 17.2601 16.4701 16.1021 16.5157C16.0702 16.5149 16.0384 16.5137 16.0064 16.5132C16.0022 16.5131 15.998 16.5131 15.9937 16.5132C15.9618 16.5137 15.93 16.5149 15.8981 16.5157C14.7404 16.4702 13.7778 15.6533 13.5111 14.5656C13.4974 14.4907 13.4827 14.4162 13.4663 14.3422C13.4471 14.2159 13.4371 14.0867 13.4371 13.9553V13.1003C15.0234 12.9794 15.9981 12.2564 16.517 11.7101C16.8805 12.2419 17.5323 12.9165 18.5631 13.0806V13.9554H18.5631ZM22.6322 3.88606C22.6322 2.47281 23.7819 1.32306 25.1952 1.32306C26.6084 1.32306 27.7582 2.47281 27.7582 3.88606V4.66593C26.6787 4.39956 26.2343 3.28825 26.2142 3.23643C26.1496 3.06581 25.9913 2.94856 25.8091 2.9365C25.6268 2.92469 25.4546 3.01969 25.368 3.18031C25.3603 3.19469 24.6224 4.51862 22.6322 4.70218V3.88606H22.6322ZM25.1952 15.7795L24.1392 14.8131L24.8386 11.7772H25.5518L26.2511 14.8131L25.1952 15.7795ZM24.3477 10.0592C24.4386 10.0442 24.5298 10.0316 24.6212 10.021C24.6342 10.0195 24.6472 10.0182 24.6602 10.0168C24.7326 10.0089 24.8051 10.0026 24.8777 9.9975C24.8979 9.99606 24.918 9.99443 24.9382 9.99324C24.9977 9.98962 25.0573 9.98787 25.1168 9.98618C25.143 9.98675 25.1689 9.98818 25.1952 9.98818C25.2216 9.98818 25.2475 9.98675 25.2737 9.98618C25.3333 9.98787 25.3928 9.98968 25.4523 9.99324C25.4724 9.99443 25.4926 9.99612 25.5128 9.9975C25.5854 10.0027 25.658 10.0089 25.7304 10.0168C25.7434 10.0182 25.7563 10.0195 25.7693 10.021C25.8607 10.0316 25.9519 10.0442 26.0429 10.0592L25.6386 10.8447H24.7521L24.3477 10.0592ZM25.2971 9.05325C25.2653 9.05237 25.2335 9.05118 25.2015 9.05075C25.1973 9.05062 25.1931 9.05062 25.1888 9.05075H25.1887C25.1568 9.05118 25.1251 9.05237 25.0931 9.05325C23.7271 8.99943 22.6321 7.87187 22.6321 6.49281V5.63775C24.2184 5.51687 25.1931 4.79387 25.712 4.2475C26.0755 4.77943 26.7273 5.454 27.7582 5.61806V6.49281C27.7583 7.87187 26.6632 8.99943 25.2971 9.05325Z" fill="#5E5E5E"/>
</svg>
