<svg width="35" height="35" viewBox="0 0 35 35" fill="none" xmlns="http://www.w3.org/2000/svg">
<path d="M29.9322 23.7412C29.8965 22.3958 29.4332 21.0968 28.6094 20.0325C27.7856 18.9682 26.6442 18.1939 25.3508 17.822L24.9862 17.717L24.4166 16.5662C24.3827 16.4977 24.3303 16.44 24.2654 16.3997C24.2004 16.3593 24.1255 16.3379 24.0491 16.3379H20.7131V14.9229C21.8069 14.0342 22.5744 12.6919 22.6618 11.1768C23.0185 11.0251 23.3105 10.7531 23.487 10.408C23.6635 10.063 23.7132 9.66695 23.6274 9.28902C23.5818 9.08199 23.4851 8.88964 23.3463 8.72944C23.2074 8.56923 23.0307 8.44624 22.8323 8.37163V6.71775L22.8786 6.61856C22.9748 6.49998 23.0456 6.3629 23.0867 6.21582C23.1277 6.06874 23.1382 5.91479 23.1173 5.76352C23.0452 5.23865 22.9067 4.72505 22.7052 4.23507C21.8444 2.13924 19.8018 0.784973 17.5025 0.784973C15.2032 0.784973 13.1608 2.1404 12.2988 4.23828C12.097 4.72993 11.9585 5.24523 11.8865 5.77179C11.8642 5.92614 11.8746 6.08345 11.9171 6.23352C11.9595 6.38358 12.0331 6.52303 12.1329 6.64283L12.1682 6.7241V8.3702C11.9694 8.44479 11.7924 8.56791 11.6532 8.72835C11.5141 8.8888 11.4173 9.08149 11.3717 9.28888C11.2837 9.66735 11.3326 10.0648 11.5098 10.4106C11.687 10.7564 11.981 11.0282 12.3396 11.1779C12.4272 12.6914 13.1936 14.0319 14.2874 14.9207V16.3379H10.9514C10.875 16.3379 10.8 16.3593 10.7351 16.3996C10.6701 16.44 10.6177 16.4977 10.5838 16.5662L10.0149 17.716L9.64992 17.821C8.35672 18.1923 7.21544 18.966 6.39164 20.0297C5.56783 21.0935 5.10435 22.3921 5.06841 23.737C5.06841 23.7397 5.06841 23.7424 5.06841 23.7451L5.00497 32.7686C5.00075 33.1562 5.15041 33.5297 5.42114 33.8072C5.55344 33.9444 5.71163 34.054 5.88655 34.1297C6.06148 34.2053 6.24967 34.2456 6.44024 34.2481H28.5602C28.7508 34.2455 28.9389 34.2053 29.1138 34.1296C29.2887 34.054 29.4469 33.9444 29.5791 33.8072C29.7129 33.6747 29.8186 33.5167 29.8902 33.3426C29.9618 33.1685 29.9977 32.9818 29.9958 32.7936L29.9324 23.7534C29.9324 23.7507 29.9323 23.7439 29.9322 23.7412ZM29.1587 30.3822C28.8474 30.1632 28.4822 30.0334 28.1026 30.0066L26.1819 29.8667V28.2324H29.1436L29.1587 30.3822ZM23.7944 17.1582L25.1137 19.8242H17.9104V17.1582H23.7944ZM19.4827 20.6445V22.4902H15.7229V20.6445H19.4827ZM15.1077 16.3379V15.4561C15.8479 15.839 16.6685 16.0405 17.5019 16.0439C18.335 16.0486 19.1564 15.8472 19.8928 15.4576V16.3379H15.1077ZM12.6991 5.88274C12.7615 5.42503 12.8819 4.97711 13.0572 4.54973C13.7922 2.76104 15.5368 1.60522 17.5017 1.60522C19.4667 1.60522 21.2111 2.75981 21.9451 4.54672C22.1197 4.97247 22.2395 5.41867 22.3017 5.8746C22.3075 5.91674 22.3041 5.95963 22.2917 6.00034C22.2794 6.04104 22.2584 6.0786 22.2302 6.11044C22.2011 6.14362 22.1652 6.17011 22.125 6.18812C22.0847 6.20612 22.041 6.21521 21.9969 6.21476L13.0044 6.22071C12.9603 6.2212 12.9166 6.21216 12.8763 6.1942C12.836 6.17624 12.8001 6.14979 12.7709 6.11666C12.7426 6.08527 12.7215 6.04807 12.7091 6.00766C12.6967 5.96725 12.6933 5.92461 12.6991 5.88274ZM21.7249 7.02085L21.2381 7.92969H13.7624L13.2793 7.02003L21.7249 7.02085ZM13.1252 10.876V10.8687C13.1283 10.7737 13.0973 10.6806 13.0377 10.6065C12.9781 10.5324 12.8939 10.4821 12.8003 10.4647C12.6155 10.432 12.4483 10.3347 12.3285 10.1903C12.2087 10.0458 12.1439 9.86354 12.1459 9.67586C12.147 9.61122 12.1559 9.54696 12.1725 9.48446C12.1963 9.38076 12.2528 9.28749 12.3337 9.2184C12.4146 9.14932 12.5156 9.1081 12.6218 9.10082C12.7231 9.0912 12.8171 9.04379 12.885 8.96804C12.953 8.89228 12.9899 8.79373 12.9885 8.69197V8.28249L13.1443 8.54752C13.1817 8.6119 13.236 8.66481 13.3013 8.70051C13.3667 8.73621 13.4405 8.75332 13.5149 8.75H21.4856C21.5598 8.75334 21.6334 8.73622 21.6985 8.70051C21.7637 8.6648 21.8177 8.61187 21.8547 8.54752L22.012 8.2762V8.69231C22.0107 8.79374 22.0475 8.89197 22.1151 8.96758C22.1827 9.04319 22.2763 9.09066 22.3772 9.10062C22.4833 9.1082 22.5843 9.14951 22.6653 9.21851C22.7463 9.28752 22.8031 9.3806 22.8274 9.48418C22.8422 9.5469 22.8494 9.61116 22.8489 9.67559C22.852 9.86245 22.7885 10.0443 22.67 10.1888C22.5514 10.3332 22.3853 10.4308 22.2015 10.4642C22.1079 10.4816 22.0236 10.5319 21.9638 10.6059C21.904 10.6799 21.8726 10.7729 21.8752 10.868V10.8756C21.8752 13.2729 19.8975 15.2233 17.5006 15.2233C15.1037 15.2233 13.1252 13.2729 13.1252 10.876ZM5.85693 28.2324H8.8186V29.8772L7.21899 30.0222C6.71266 30.0645 6.23144 30.2609 5.84012 30.5849L5.85693 28.2324ZM9.5022 33.4277H6.44024C6.27418 33.4221 6.11715 33.3508 6.00356 33.2295C5.94626 33.173 5.90092 33.1055 5.87024 33.0311C5.83956 32.9567 5.82418 32.8769 5.82501 32.7964L5.82836 32.334H5.84675C5.84675 31.5137 6.45515 30.9277 7.29405 30.8509L8.81847 30.7061V32.0107C8.81847 32.0622 8.8286 32.1131 8.84829 32.1606C8.86798 32.2081 8.89684 32.2513 8.93322 32.2877C8.9696 32.3241 9.01279 32.3529 9.06032 32.3726C9.10785 32.3923 9.15879 32.4024 9.21023 32.4023H9.5022V33.4277ZM8.84267 20.084C8.79609 20.178 8.78747 20.2863 8.8186 20.3865V27.4121H5.86268L5.88838 23.7519C5.91873 22.6471 6.28081 21.577 6.92752 20.6808C7.57423 19.7845 8.47566 19.1036 9.51457 18.7265L8.84267 20.084ZM24.678 33.4277H10.3225V32.4023H24.678V33.4277ZM15.8596 31.582V29.2315C15.928 29.3042 16.0624 29.3262 16.1672 29.3262H16.1706C16.2245 29.328 16.2782 29.319 16.3285 29.2996C16.3788 29.2801 16.4247 29.2508 16.4634 29.2132L16.8868 28.7866L17.3038 29.2192C17.3418 29.2588 17.3875 29.2904 17.438 29.312C17.4885 29.3336 17.5428 29.3448 17.5977 29.345C17.6527 29.3452 17.7071 29.3343 17.7577 29.313C17.8083 29.2917 17.8542 29.2605 17.8925 29.2211L18.3095 28.7913L18.7329 29.213C18.7717 29.2507 18.8177 29.2802 18.8681 29.2996C18.9186 29.3191 18.9725 29.3281 19.0265 29.3262H19.0299C19.0756 29.3301 19.1217 29.3236 19.1646 29.3072C19.2075 29.2908 19.2461 29.2649 19.2776 29.2315V31.582H15.8596ZM25.3616 31.582H20.0979V28.2043C20.1017 28.1236 20.0805 28.0437 20.0372 27.9755C19.9938 27.9073 19.9305 27.8541 19.8559 27.8232C19.7812 27.7923 19.6988 27.7852 19.62 27.8029C19.5411 27.8206 19.4697 27.8621 19.4153 27.9219L19.0175 28.3454L18.5995 27.9312C18.5609 27.8942 18.5153 27.8655 18.4653 27.8468C18.4153 27.8281 18.362 27.8197 18.3087 27.8223H18.3076C18.2538 27.8198 18.2001 27.8283 18.1496 27.8473C18.0992 27.8663 18.0532 27.8954 18.0144 27.9327L17.5987 28.3541L17.183 27.9362C17.1444 27.8984 17.0985 27.8687 17.0481 27.8492C16.9976 27.8296 16.9438 27.8204 16.8897 27.8223H16.8886C16.835 27.8197 16.7814 27.8281 16.7311 27.8468C16.6808 27.8655 16.6348 27.8942 16.5959 27.9312L16.1757 28.3524L15.7738 27.9254C15.7147 27.8655 15.6395 27.8241 15.5573 27.8062C15.4751 27.7884 15.3894 27.795 15.3109 27.8251C15.2332 27.8545 15.166 27.9061 15.1177 27.9736C15.0693 28.0411 15.0421 28.1214 15.0393 28.2043V31.582H9.63892V20.6445H11.3479C11.4567 20.6445 11.561 20.6013 11.6379 20.5244C11.7148 20.4475 11.7581 20.3432 11.7581 20.2344C11.7581 20.1256 11.7148 20.0213 11.6379 19.9444C11.561 19.8674 11.4567 19.8242 11.3479 19.8242H9.88658L11.2059 17.1582H17.0901V19.8242H14.0823C13.9735 19.8242 13.8692 19.8674 13.7923 19.9444C13.7153 20.0213 13.6721 20.1256 13.6721 20.2344C13.6721 20.3432 13.7153 20.4475 13.7923 20.5244C13.8692 20.6013 13.9735 20.6445 14.0823 20.6445H14.9026V22.9128C14.9063 23.0217 14.9531 23.1247 15.0326 23.1992C15.1121 23.2738 15.2179 23.3138 15.3268 23.3106H19.8705C20.0971 23.3106 20.303 23.1392 20.303 22.9128V20.6445H25.3616V31.582ZM27.5559 20.0659C28.5201 21.055 29.0759 22.3712 29.1125 23.752L29.1378 27.4121H26.1819V20.3865C26.213 20.2864 26.2044 20.1781 26.1578 20.0841L25.4865 18.7276C26.2683 19.012 26.9758 19.4695 27.5559 20.0659ZM28.9969 33.2295C28.8833 33.3508 28.7263 33.4221 28.5602 33.4277H25.4983V32.4023H25.7903C25.8941 32.4023 25.9937 32.3611 26.0672 32.2876C26.1406 32.2142 26.1819 32.1146 26.1819 32.0107V30.6897L28.0427 30.8265C28.6267 30.8692 29.1087 31.3163 29.1689 31.8475L29.1758 32.775C29.1775 32.944 29.1133 33.107 28.9969 33.2295Z" fill="#19191D"/>
<path d="M11.5527 21.517C11.444 21.517 11.3396 21.5602 11.2627 21.6371C11.1858 21.714 11.1426 21.8183 11.1426 21.9271V22.3578C11.1426 22.4666 11.1858 22.5709 11.2627 22.6478C11.3396 22.7247 11.444 22.7679 11.5527 22.7679C11.6615 22.7679 11.7658 22.7247 11.8428 22.6478C11.9197 22.5709 11.9629 22.4666 11.9629 22.3578V21.9271C11.9629 21.8183 11.9197 21.714 11.8428 21.6371C11.7658 21.5602 11.6615 21.517 11.5527 21.517Z" fill="#19191D"/>
<path d="M11.5527 23.2462C11.444 23.2462 11.3396 23.2894 11.2627 23.3663C11.1858 23.4432 11.1426 23.5475 11.1426 23.6563V28.168C11.1426 28.2768 11.1858 28.3811 11.2627 28.4581C11.3396 28.535 11.444 28.5782 11.5527 28.5782C11.6615 28.5782 11.7658 28.535 11.8428 28.4581C11.9197 28.3811 11.9629 28.2768 11.9629 28.168V23.6563C11.9629 23.5475 11.9197 23.4432 11.8428 23.3663C11.7658 23.2894 11.6615 23.2462 11.5527 23.2462Z" fill="#19191D"/>
</svg>
